<svg width="1024" height="1024" xmlns="http://www.w3.org/2000/svg" class="icon">
    <path d="m208.736,566.336l-144.352,0l0,59.328l144.352,0l0,-59.328zm0,-336.096l-43.296,0l0,-155.648c0,-7.968 4.896,-14.848 10.464,-14.848l502.016,0l0,-59.296l-501.984,0c-38.72,1.248 -69.248,34.368 -68.192,74.144l0,155.648l-43.36,0l0,59.36l144.352,0l0,-59.36zm0,168.096l-144.352,0l0,59.328l144.352,0l0,-59.328zm714.656,76.576l-57.76,0l0,474.496c0,7.936 -4.896,14.848 -10.464,14.848l-679.232,0c-5.568,0 -10.464,-6.912 -10.464,-14.848l0,-155.68l43.296,0l0,-59.296l-144.384,0l0,59.296l43.328,0l0,155.68c-1.024,39.776 29.472,72.896 68.192,74.144l679.232,0c38.72,-1.184 69.248,-34.368 68.256,-74.144l0,-474.496zm14.944,-290.336l-83.072,-85.312a71.264,71.264 0 0 0 -52.544,-21.728a71.52,71.52 0 0 0 -51.616,23.872l-364.576,405.856a30.496,30.496 0 0 0 -6.176,10.72l-72.192,222.528a30.016,30.016 0 0 0 6.976,30.24c7.712,7.968 19.2,10.752 29.568,7.2l216.544,-74.112a28.736,28.736 0 0 0 12.128,-7.936l367.072,-408.448a75.552,75.552 0 0 0 -2.112,-102.88zm-557.12,518.272l39.104,-120.64l78.336,80.416l-117.44,40.224zm170.048,-70.016l-103.552,-106.016l200.16,-222.4l103.52,106.304l-200.128,222.112zm346.688,-385.76l-0.256,0.224l-107.136,119.168l-103.52,-106.528l106.432,-118.624a14.144,14.144 0 0 1 10.304,-4.736a13.44,13.44 0 0 1 10.464,4.288l83.264,85.696c5.472,5.6 5.664,14.72 0.448,20.512z"/>
</svg>