<svg width="1024" height="1024" xmlns="http://www.w3.org/2000/svg" class="icon">
    <path d="m826.56,470.016c-32.896,0 -64.384,12.288 -89.984,35.52l0,-104.96c0,-62.208 -50.496,-112.832 -112.64,-113.088l0,-0.448l-104.384,0.064c22.272,-24.384 35.008,-56.384 35.008,-89.984c0,-73.536 -59.904,-133.44 -133.504,-133.44c-73.472,0 -133.376,59.904 -133.376,133.44c0,32.896 12.224,64.256 35.52,89.984l-147.968,0l0,0.576c-61.504,1.024 -111.232,51.2 -111.232,112.896l0.32,0l0.32,116.48c-3.776,27.84 5.952,60.672 36.16,71.424c12.736,4.608 37.632,7.488 60.864,-25.28c12.992,-18.368 34.24,-29.248 56.64,-29.248c38.336,0 69.504,31.104 69.504,69.312c0,38.4 -31.168,69.504 -69.504,69.504c-22.656,0 -44.032,-11.264 -57.344,-30.4c-22.272,-32.256 -48.384,-27.008 -58.496,-23.232c-29.824,10.752 -39.104,43.776 -38.144,67.392l0,160.384l-0.32,0c0,62.336 50.752,113.088 113.216,113.088l446.272,0c62.4,0 113.152,-50.752 113.152,-113.152l0,-145.024c24.384,22.272 56.384,35.008 89.984,35.008c73.536,0 133.44,-59.904 133.44,-133.504c-0.064,-73.408 -59.968,-133.312 -133.504,-133.312zm0,202.88c-22.72,0 -44.032,-11.264 -57.344,-30.4c-22.272,-32.384 -48.448,-27.136 -58.56,-23.36c-29.824,10.752 -39.04,43.776 -38.08,67.392l0,160.384c0,27.136 -22.016,49.152 -49.152,49.152l-446.208,0c-27.136,-0.064 -49.216,-22.08 -49.216,-49.216l0.32,0l0,-145.024c24.384,22.272 56.384,35.008 89.984,35.008c73.6,0 133.504,-59.904 133.504,-133.504c0,-73.472 -59.904,-133.376 -133.504,-133.376c-32.896,0 -64.32,12.288 -89.984,35.52l0,-104.96l-0.32,0c0,-27.072 22.08,-49.152 49.216,-49.152l0,-0.32l157.44,-0.32c3.776,0.512 7.616,0.832 11.52,0.832c24.896,0 50.752,-10.816 60.032,-37.056c4.544,-12.736 7.424,-37.568 -25.344,-60.736c-18.24,-12.992 -29.184,-34.24 -29.184,-56.64c0,-38.272 31.104,-69.44 69.376,-69.44c38.336,0 69.504,31.168 69.504,69.44c0,22.72 -11.264,44.032 -30.528,57.472c-32.064,22.144 -26.944,48.192 -23.232,58.432c10.752,29.888 43.072,39.232 67.392,38.08l119.232,0l0,0.384c27.136,0 49.152,22.08 49.152,49.152l0.256,116.48c-3.776,27.84 6.016,60.736 36.224,71.488c12.736,4.608 37.632,7.488 60.8,-25.28c13.056,-18.368 34.24,-29.248 56.704,-29.248c38.272,-0.064 69.44,31.04 69.44,69.312c0,38.336 -31.168,69.504 -69.44,69.504z"/>
</svg>